<?xml version="1.0" encoding="UTF-8" standalone="no"?>
<svg width="1024px" height="1024px" viewBox="0 0 1024 1024" version="1.1" xmlns="http://www.w3.org/2000/svg" xmlns:xlink="http://www.w3.org/1999/xlink">
    <!-- Generator: Sketch Beta 3.6 (26265) - http://www.bohemiancoding.com/sketch -->
    <title>yeezy</title>
    <desc>Created with Sketch Beta.</desc>
    <defs></defs>
    <g id="Page-1" stroke="none" stroke-width="1" fill="none" fill-rule="evenodd" fill-opacity="0">
        <g id="yeezy" fill="#FFFFFF">
            <path d="M172.15625,369.84375 L196.570312,369.84375 L200.085938,375.3125 L127.234375,527.460938 L127.234375,651.09375 L123.328125,655 L101.648438,655 L97.7421875,651.09375 L97.7421875,527.070312 L25.28125,375.3125 L28.9921875,369.84375 L53.40625,369.84375 L56.921875,371.796875 L112.976562,490.9375 L168.445312,371.796875 L172.15625,369.84375 Z M244.03125,369.84375 L389.734375,369.84375 L393.640625,373.75 L393.640625,394.648438 L389.734375,398.945312 L269.617188,398.945312 L269.617188,497.773438 L379.96875,497.773438 L384.070312,501.875 L384.070312,522.96875 L379.96875,527.070312 L269.617188,527.070312 L269.617188,625.703125 L389.734375,625.703125 L393.640625,629.804688 L393.640625,651.09375 L389.734375,655 L244.03125,655 L240.125,651.09375 L240.125,373.75 L244.03125,369.84375 Z M445.59375,369.84375 L591.296875,369.84375 L595.203125,373.75 L595.203125,394.648438 L591.296875,398.945312 L471.179688,398.945312 L471.179688,497.773438 L581.53125,497.773438 L585.632812,501.875 L585.632812,522.96875 L581.53125,527.070312 L471.179688,527.070312 L471.179688,625.703125 L591.296875,625.703125 L595.203125,629.804688 L595.203125,651.09375 L591.296875,655 L445.59375,655 L441.6875,651.09375 L441.6875,373.75 L445.59375,369.84375 Z M789.148438,625.703125 L793.445312,629.804688 L793.445312,651.09375 L789.148438,655 L638.367188,655 L634.265625,651.09375 L634.265625,628.242188 L686.609375,527.070312 L653.992188,527.070312 L649.890625,522.578125 L649.890625,501.875 L653.992188,497.773438 L701.84375,497.773438 L753.40625,398.554688 L643.835938,398.554688 L639.929688,394.648438 L639.929688,373.75 L643.835938,369.84375 L782.703125,369.84375 L786.609375,373.75 L786.609375,396.210938 L733.875,497.773438 L768.640625,497.773438 L772.742188,501.875 L772.742188,522.578125 L768.640625,527.070312 L718.640625,527.070312 L667.46875,625.703125 L789.148438,625.703125 Z M970.789062,369.84375 L995.203125,369.84375 L998.71875,375.3125 L925.867188,527.460938 L925.867188,651.09375 L921.960938,655 L900.28125,655 L896.375,651.09375 L896.375,527.070312 L823.914062,375.3125 L827.625,369.84375 L852.039062,369.84375 L855.554688,371.796875 L911.609375,490.9375 L967.078125,371.796875 L970.789062,369.84375 Z" id="YEEZY"></path>
        </g>
    </g>
</svg>